<?xml version="1.0" encoding="UTF-8"?>
<svg width="11px" height="7px" viewBox="0 0 11 7" version="1.1" xmlns="http://www.w3.org/2000/svg" xmlns:xlink="http://www.w3.org/1999/xlink">
    <!-- Generator: sketchtool 52.5 (67469) - http://www.bohemiancoding.com/sketch -->
    <title>F6B3C8F7-0EEF-4875-9205-7ED9C5ABB3FA</title>
    <desc>Created with sketchtool.</desc>
    <g id="design" stroke="none" stroke-width="1" fill="none" fill-rule="evenodd">
        <g id="CW-India---Climate-policies---Indicators" transform="translate(-892.000000, -2130.000000)" fill="#113750" fill-rule="nonzero">
            <g id="Group-5-Copy-2" transform="translate(111.000000, 2116.000000)">
                <g id="Group-2-Copy-5" transform="translate(786.500000, 17.500000) scale(1, -1) translate(-786.500000, -17.500000) translate(781.000000, 14.000000)">
                    <path d="M4.42926229,5.95372045 L0.332140319,1.85659849 C-0.100398158,1.42406001 -0.112993996,0.731288877 0.30914744,0.30914744 C0.731288877,-0.112993996 1.42406001,-0.100398158 1.85659849,0.332140319 L5.28482436,3.76036619 L8.71305023,0.332140319 C9.1455887,-0.100398158 9.83835984,-0.112993996 10.2605013,0.30914744 C10.6826427,0.731288877 10.6700469,1.42406001 10.2375084,1.85659849 L6.14038643,5.95372045 C5.91013565,6.18397123 5.59856003,6.30160748 5.28482436,6.28417175 C4.97108868,6.30160748 4.65951306,6.18397123 4.42926229,5.95372045 Z" id="Combined-Shape" transform="translate(5.284824, 3.142933) scale(1, -1) translate(-5.284824, -3.142933) "></path>
                </g>
            </g>
        </g>
    </g>
</svg>