<?xml version="1.0" encoding="UTF-8"?>
<svg width="16px" height="16px" viewBox="0 0 16 16" version="1.1" xmlns="http://www.w3.org/2000/svg" xmlns:xlink="http://www.w3.org/1999/xlink">
    <!-- Generator: sketchtool 52.5 (67469) - http://www.bohemiancoding.com/sketch -->
    <title>F0C9CB03-BDAE-4C92-B356-AE28CE4B6922</title>
    <desc>Created with sketchtool.</desc>
    <g id="design" stroke="none" stroke-width="1" fill="none" fill-rule="evenodd">
        <g id="CW-India---Climate-policies---Single-policy-Instruments" transform="translate(-729.000000, -625.000000)" fill="#0A1941">
            <g id="icon/info_fill" transform="translate(729.000000, 625.000000)">
                <g id="info_fill">
                    <path d="M8,0.4 C10.0935,0.4 11.8835,1.1435 13.37,2.63 C14.8565,4.1165 15.6,5.9065 15.6,8 C15.6,10.0935 14.8565,11.8835 13.37,13.37 C11.8835,14.8565 10.0935,15.6 8,15.6 C5.9065,15.6 4.1165,14.8565 2.63,13.37 C1.1435,11.8835 0.4,10.0935 0.4,8 C0.4,5.9065 1.1435,4.1165 2.63,2.63 C4.1165,1.1435 5.9065,0.4 8,0.4 Z M9.027,4.967 C9.027,4.4065 8.5725,3.952 8.012,3.952 C7.4515,3.952 6.997,4.4065 6.997,4.967 C6.997,5.5275 7.4515,5.982 8.012,5.982 C8.5725,5.982 9.027,5.5275 9.027,4.967 Z M9.027,11.564 L9.027,8.012 C9.027,7.4515 8.5725,6.997 8.012,6.997 C7.4515,6.997 6.997,7.4515 6.997,8.012 L6.997,11.564 C6.997,12.1245 7.4515,12.579 8.012,12.579 C8.5725,12.579 9.027,12.1245 9.027,11.564 Z" id="Shape" fill-rule="nonzero"></path>
                </g>
            </g>
        </g>
    </g>
</svg>