<?xml version="1.0" encoding="UTF-8"?>
<svg width="16px" height="16px" viewBox="0 0 16 16" version="1.1" xmlns="http://www.w3.org/2000/svg" xmlns:xlink="http://www.w3.org/1999/xlink">
    <!-- Generator: sketchtool 52.5 (67469) - http://www.bohemiancoding.com/sketch -->
    <title>26A88D13-A23E-4799-9339-243F7F8080D6</title>
    <desc>Created with sketchtool.</desc>
    <g id="design" stroke="none" stroke-width="1" fill="none" fill-rule="evenodd">
        <g id="CW-India---Climate-policies" transform="translate(-1191.000000, -476.000000)" fill="#001329" fill-rule="nonzero">
            <g id="filters" transform="translate(886.000000, 462.000000)">
                <g id="dropdown">
                    <path d="M317.7,25.2298137 C318.6,24.0372671 319.1,22.6459627 319.1,21.0559006 C319.1,17.1801242 316,14 312.1,14 C308.2,14 305,17.1801242 305,21.0559006 C305,24.931677 308.2,28.1118012 312.1,28.1118012 C313.7,28.1118012 315.2,27.6149068 316.3,26.7204969 L319.3,29.7018634 C319.5,29.9006211 319.8,30 320,30 C320.2,30 320.5,29.9006211 320.7,29.7018634 C321.1,29.3043478 321.1,28.7080745 320.7,28.310559 L317.7,25.2298137 Z M312.1,26.0248447 C309.3,26.0248447 307,23.8385093 307,21.0559006 C307,18.2732919 309.3,15.9875776 312.1,15.9875776 C314.9,15.9875776 317.2,18.2732919 317.2,21.0559006 C317.2,23.8385093 314.9,26.0248447 312.1,26.0248447 Z" id="search"></path>
                </g>
            </g>
        </g>
    </g>
</svg>